<?xml version="1.0" standalone="no"?>
<!DOCTYPE svg PUBLIC "-//W3C//DTD SVG 20010904//EN"
 "http://www.w3.org/TR/2001/REC-SVG-20010904/DTD/svg10.dtd">
<svg version="1.0" xmlns="http://www.w3.org/2000/svg"
 width="1088.000000pt" height="1088.000000pt" viewBox="0 0 1088.000000 1088.000000"
 preserveAspectRatio="xMidYMid meet">
<metadata>
Created by potrace 1.14, written by Peter Selinger 2001-2017
</metadata>
<g transform="translate(0.000000,1088.000000) scale(0.100000,-0.100000)"
fill="#000000" stroke="none">
<path d="M4849 9908 c-1 -30 4 -212 16 -583 4 -110 8 -270 10 -354 4 -169 7
-179 62 -175 15 1 35 3 44 3 14 1 15 21 12 179 l-4 177 123 3 c68 1 151 3 185
4 77 2 58 19 233 -220 l95 -131 55 2 c30 2 57 6 59 11 2 4 -53 86 -123 181
-69 95 -126 178 -126 184 0 6 9 11 20 11 11 0 20 3 20 8 0 4 16 16 36 27 72
38 142 150 149 238 2 23 5 44 6 47 1 3 0 10 -1 15 -1 6 -4 33 -6 60 -4 62 -25
115 -70 176 -41 57 -99 96 -184 125 -61 21 -84 22 -337 23 -215 1 -273 -1
-274 -11z m541 -102 c137 -45 197 -118 205 -251 8 -142 -67 -244 -210 -287
-16 -5 -114 -11 -217 -14 l-188 -6 -1 89 c-1 104 -8 324 -12 406 -3 51 -1 58
17 62 54 12 369 13 406 1z"/>
<path d="M6030 9893 c4 -16 31 -84 60 -153 28 -69 55 -136 60 -150 8 -25 28
-75 54 -135 7 -16 30 -73 51 -125 21 -52 47 -115 58 -140 25 -57 25 -114 1
-245 -21 -112 -31 -191 -25 -197 4 -4 30 -10 59 -14 46 -5 52 -3 53 13 0 10 2
27 4 38 3 11 7 40 9 65 3 25 7 54 9 65 3 11 10 59 17 106 12 86 13 88 77 165
36 44 79 96 96 118 18 21 41 49 52 61 11 13 36 42 54 65 19 24 41 48 48 56 7
7 13 17 13 23 0 6 4 11 8 11 4 0 42 42 82 93 41 50 85 103 97 116 12 14 20 28
17 32 -2 4 -27 10 -54 14 -47 6 -52 5 -72 -21 -12 -15 -32 -39 -45 -53 -12
-14 -26 -30 -31 -36 -19 -24 -98 -120 -102 -125 -3 -3 -29 -34 -58 -70 -29
-36 -61 -74 -70 -85 -10 -11 -44 -53 -77 -92 -32 -40 -60 -72 -61 -70 -1 1
-25 60 -53 130 -29 71 -57 140 -63 155 -6 15 -12 29 -13 32 -3 10 -18 45 -47
115 -17 39 -31 75 -32 80 -1 6 -10 28 -20 50 -9 22 -23 57 -29 77 -10 33 -16
38 -52 44 -22 3 -50 8 -62 10 -19 4 -21 1 -13 -23z"/>
<path d="M4255 9821 c-11 -5 -23 -7 -27 -4 -4 2 -16 0 -26 -6 -10 -5 -38 -12
-62 -16 -25 -4 -48 -9 -52 -11 -4 -3 -16 -7 -25 -9 -15 -2 -90 -20 -218 -51
-11 -3 -33 -7 -50 -10 -16 -3 -37 -8 -45 -11 -14 -6 -24 -8 -72 -17 -13 -3
-25 -6 -28 -7 -3 -1 -9 -3 -15 -4 -24 -3 -55 -17 -55 -24 0 -4 7 -34 16 -66 9
-33 17 -69 19 -80 1 -11 10 -53 20 -94 9 -40 18 -78 19 -85 1 -6 5 -20 9 -31
3 -11 8 -36 11 -55 4 -19 11 -53 16 -75 6 -22 13 -51 16 -65 3 -14 17 -72 30
-130 14 -58 27 -116 30 -130 2 -14 7 -36 11 -50 3 -14 7 -31 9 -39 1 -7 8 -35
14 -61 6 -26 12 -54 14 -61 8 -46 18 -61 39 -54 12 3 31 8 42 10 53 12 71 16
80 19 28 8 301 74 340 82 56 12 257 62 260 65 6 7 -16 99 -23 99 -4 0 -23 -5
-42 -10 -19 -6 -46 -12 -60 -15 -14 -2 -61 -13 -105 -24 -43 -11 -81 -18 -83
-16 -3 2 -13 0 -24 -6 -10 -5 -31 -12 -46 -14 -15 -3 -81 -18 -147 -35 -66
-16 -123 -30 -126 -30 -6 0 -32 100 -70 265 -30 130 -29 138 6 146 17 3 100
23 185 43 85 21 162 39 170 41 86 20 140 34 148 39 12 7 -8 96 -22 96 -6 0
-28 -5 -50 -11 -21 -6 -47 -13 -57 -15 -25 -5 -38 -8 -139 -33 -90 -23 -104
-26 -160 -36 -19 -4 -43 -11 -52 -16 -10 -5 -18 -8 -18 -5 0 3 -14 1 -31 -4
-21 -6 -31 -5 -34 3 -4 11 -67 278 -81 348 -6 27 1 32 76 46 14 2 68 15 121
28 53 14 107 27 120 29 13 3 24 5 24 6 0 1 11 4 24 6 14 2 50 11 80 19 31 8
70 17 86 20 17 3 37 8 45 10 8 2 20 4 27 4 7 1 9 14 6 39 -2 20 -5 43 -5 50
-1 13 -32 15 -63 3z"/>
<path d="M7983 9463 c-6 -16 -24 -61 -39 -100 -15 -40 -30 -73 -33 -73 -3 0
-31 38 -61 85 -30 47 -57 85 -60 84 -3 0 -17 -10 -33 -22 l-27 -23 30 -34 c16
-19 29 -40 30 -47 0 -6 4 -13 8 -15 11 -4 66 -78 61 -82 -2 -2 -29 -7 -59 -10
-134 -15 -150 -19 -151 -32 -5 -58 -4 -59 26 -58 34 2 106 11 148 19 40 8 51
-2 33 -31 -9 -13 -16 -27 -16 -32 0 -5 -9 -29 -19 -53 -11 -24 -19 -47 -18
-50 1 -3 -3 -13 -10 -21 -10 -12 -6 -17 22 -30 l34 -15 42 101 c22 56 42 102
43 103 1 2 24 -28 51 -65 27 -37 55 -73 62 -80 7 -7 13 -18 13 -23 0 -15 15
-10 44 14 l26 23 -32 44 c-18 25 -40 53 -48 62 -8 9 -23 30 -33 47 -17 30 -17
31 0 32 19 1 59 5 133 13 25 2 48 5 52 5 3 1 5 18 5 39 -2 33 -5 37 -27 36
-28 -1 -109 -12 -157 -20 -39 -7 -40 -2 -12 68 12 29 22 58 24 63 1 6 7 23 13
38 16 38 15 44 -5 50 -10 2 -25 8 -33 11 -10 4 -19 -3 -27 -21z"/>
<path d="M2556 9244 c-27 -13 -50 -25 -52 -27 -1 -1 13 -35 32 -75 19 -41 34
-75 34 -78 0 -2 13 -31 29 -64 16 -33 28 -60 26 -60 -2 0 9 -27 26 -59 16 -33
29 -62 29 -65 0 -2 16 -40 36 -83 35 -76 56 -123 59 -133 0 -3 11 -26 23 -52
20 -45 31 -67 81 -180 39 -89 58 -134 64 -150 7 -21 11 -20 142 43 50 24 92
44 95 44 3 1 34 15 70 32 36 17 127 60 204 96 76 36 143 70 149 76 7 7 4 22
-8 48 -10 21 -19 39 -20 41 -2 3 -79 -32 -370 -168 -164 -76 -177 -81 -191
-76 -8 3 -13 9 -12 13 1 9 -7 30 -52 128 -18 38 -84 187 -147 330 -64 143
-125 280 -136 305 -11 25 -21 47 -22 50 0 3 -10 24 -20 47 l-20 41 -49 -24z"/>
<path d="M9078 8695 c-2 -2 -18 -5 -36 -8 -39 -6 -121 -57 -142 -88 -8 -12
-21 -27 -27 -35 -7 -7 -13 -20 -13 -28 0 -9 -4 -16 -8 -16 -10 0 -10 -3 -16
-74 -2 -27 1 -65 7 -85 6 -20 11 -38 12 -41 4 -18 51 -95 135 -220 107 -160
133 -217 124 -283 -6 -53 -61 -113 -117 -128 -47 -13 -121 1 -181 34 -56 31
-150 121 -194 187 -39 59 -85 174 -74 184 3 4 0 11 -8 16 -9 5 -28 1 -53 -12
-42 -21 -42 -20 -23 -104 6 -30 73 -151 110 -199 74 -97 211 -205 260 -205 9
0 16 -5 16 -12 0 -6 3 -9 6 -5 3 3 25 0 48 -7 23 -7 51 -11 61 -9 11 2 32 6
47 8 80 13 165 81 204 164 16 33 22 121 11 161 -12 42 -54 129 -80 164 -164
225 -197 288 -194 370 2 50 7 60 42 96 22 22 53 44 70 49 35 9 101 6 136 -7
13 -5 29 -11 34 -12 32 -7 195 -154 195 -176 0 -8 4 -14 9 -14 7 0 52 -91 62
-127 3 -10 16 -7 47 8 38 19 42 25 38 49 -16 102 -184 297 -306 357 -36 17
-76 34 -90 38 -26 8 -107 15 -112 10z"/>
<path d="M1568 8592 c-21 -15 -39 -31 -41 -37 -2 -5 59 -95 135 -200 175 -239
169 -231 212 -288 20 -26 36 -51 36 -56 0 -5 3 -11 8 -13 6 -3 46 -56 119
-157 10 -14 35 -46 56 -73 20 -26 37 -51 37 -56 0 -5 11 -19 24 -31 l24 -23
184 141 c100 77 192 148 203 156 11 9 57 44 102 78 46 34 83 67 83 72 0 6 -13
26 -29 45 l-28 34 -76 -59 c-41 -33 -87 -69 -102 -79 -14 -11 -35 -27 -46 -35
-32 -26 -61 -49 -124 -96 -33 -25 -68 -52 -77 -60 -63 -52 -57 -54 -133 51
-39 53 -74 104 -80 113 -5 9 -13 18 -16 21 -3 3 -99 134 -214 293 -115 158
-211 287 -214 287 -3 -1 -23 -13 -43 -28z"/>
<path d="M9907 8004 c-24 -16 -36 -31 -33 -40 3 -8 43 -69 88 -135 46 -66 88
-127 93 -137 6 -9 15 -21 20 -25 14 -11 3 -19 -395 -307 -190 -137 -359 -261
-377 -275 l-32 -26 32 -45 c17 -24 33 -44 36 -44 5 0 279 194 306 217 6 4 105
75 220 157 116 83 212 153 213 158 2 4 9 8 16 8 7 0 21 9 31 20 17 19 19 19
37 4 10 -10 18 -21 18 -26 0 -5 5 -14 10 -21 40 -48 54 -66 72 -99 12 -21 25
-38 30 -38 4 0 8 -4 8 -10 0 -5 16 -33 36 -60 l36 -51 37 27 c20 15 38 29 40
30 1 2 -57 91 -130 199 -74 107 -138 203 -144 213 -5 9 -12 19 -16 22 -3 3
-44 64 -92 135 -48 72 -95 140 -105 153 l-17 22 -38 -26z"/>
<path d="M799 7763 l-33 -47 40 -75 c99 -190 120 -226 127 -232 5 -3 8 -9 7
-13 0 -3 15 -34 34 -69 19 -34 42 -78 51 -97 8 -19 24 -48 34 -65 9 -16 44
-82 77 -145 32 -63 61 -117 64 -120 3 -3 14 -23 26 -45 61 -115 107 -201 113
-208 4 -4 22 13 40 39 39 53 43 37 -55 217 l-64 118 32 47 c18 25 60 83 93
127 33 45 68 92 78 105 9 14 49 68 87 121 l70 97 73 -14 c39 -8 82 -16 95 -18
12 -3 30 -7 40 -10 9 -3 28 -7 42 -10 14 -2 32 -7 40 -10 8 -3 20 -2 26 2 17
12 64 85 59 93 -4 6 -35 14 -100 26 -11 2 -47 10 -80 18 -33 8 -71 17 -85 19
-14 3 -56 12 -95 21 -38 8 -79 17 -90 20 -11 2 -33 7 -50 10 -16 3 -65 15
-110 25 -45 10 -92 21 -105 24 -55 11 -77 16 -121 26 -51 12 -55 13 -114 24
-22 4 -47 10 -55 13 -8 3 -24 7 -35 9 -50 9 -60 12 -60 13 0 1 -14 4 -32 7
-29 3 -35 -1 -64 -43z m461 -158 c8 -2 47 -11 85 -20 78 -18 99 -23 134 -30
13 -2 26 -7 29 -9 4 -5 -72 -123 -88 -136 -4 -3 -21 -27 -40 -55 -19 -27 -36
-52 -40 -55 -3 -3 -32 -42 -63 -87 -32 -45 -62 -85 -66 -87 -5 -3 -23 23 -41
57 -30 58 -43 81 -117 217 -17 30 -48 87 -68 125 -21 39 -48 89 -61 113 -13
23 -24 44 -24 46 0 2 110 -22 360 -79z"/>
<path d="M5854 7402 c-29 -15 -56 -41 -122 -121 -52 -62 -95 -112 -112 -130
-8 -9 -35 -41 -60 -71 -25 -30 -47 -57 -50 -60 -3 -3 -41 -48 -85 -100 -44
-52 -82 -97 -85 -100 -4 -4 -133 -157 -185 -219 -11 -13 -29 -34 -40 -46 -18
-21 -64 -75 -122 -144 -12 -14 -37 -44 -57 -66 -19 -22 -61 -71 -93 -110 -92
-110 -97 -117 -108 -129 -6 -6 -35 -40 -65 -76 -30 -35 -60 -70 -67 -78 -7 -7
-29 -34 -50 -59 -21 -26 -45 -54 -53 -63 -8 -9 -35 -41 -60 -70 -25 -30 -74
-88 -110 -130 -36 -42 -85 -100 -110 -130 -25 -30 -54 -64 -65 -76 -11 -12
-42 -49 -70 -83 -27 -33 -53 -61 -57 -61 -5 0 -8 -5 -8 -11 0 -7 -8 -19 -18
-28 -9 -9 -50 -56 -90 -104 -108 -129 -121 -142 -150 -143 -15 -1 -58 -4 -97
-8 -38 -4 -110 -9 -160 -12 -49 -3 -115 -7 -145 -9 -30 -2 -61 -4 -68 -4 -18
-1 -11 -61 23 -186 9 -33 19 -71 21 -85 3 -13 9 -29 15 -36 5 -6 7 -13 4 -16
-3 -3 13 -18 35 -33 39 -27 48 -40 33 -47 -5 -1 -28 -28 -52 -58 -25 -30 -55
-66 -67 -80 -13 -14 -42 -47 -65 -75 -76 -92 -134 -159 -156 -183 -13 -12 -23
-26 -23 -31 0 -4 -10 -17 -22 -28 -13 -12 -33 -32 -46 -46 l-22 -25 23 -28 24
-27 45 44 c25 24 112 107 193 184 82 77 172 163 201 190 161 153 138 138 197
129 102 -15 569 -8 687 11 14 2 54 6 90 9 36 4 74 8 85 10 11 2 43 7 70 10 81
10 139 18 160 22 11 2 47 9 80 14 33 5 69 12 80 14 11 2 40 7 65 12 50 9 59
11 63 13 1 1 18 4 37 6 38 5 72 11 98 19 9 3 29 8 45 11 97 19 235 50 309 70
32 8 72 17 89 20 18 3 36 8 41 11 4 3 17 7 27 9 11 2 54 13 96 25 42 12 84 23
93 25 22 5 271 81 347 106 87 30 90 30 93 29 1 0 16 7 32 15 17 9 30 13 30 10
0 -3 17 2 38 11 20 9 73 29 117 45 44 16 89 33 100 39 11 5 65 27 120 50 118
49 335 155 420 204 33 19 74 43 90 52 17 9 32 20 35 23 3 3 39 29 79 56 95 63
234 200 257 251 20 45 26 170 12 241 -14 71 -18 91 -22 116 -6 35 -49 160 -62
180 -10 16 -14 15 -50 -11 -149 -107 -434 -292 -450 -292 -4 0 -22 -11 -40
-25 -18 -14 -35 -25 -37 -25 -3 0 -49 -25 -102 -55 -54 -30 -103 -55 -110 -55
-8 0 -15 -4 -17 -9 -3 -8 -292 -151 -313 -154 -5 -1 -12 -4 -15 -7 -5 -6 -47
-24 -245 -105 -204 -83 -649 -228 -768 -251 -55 -10 -68 -13 -76 -19 -5 -3
-22 -7 -38 -9 -15 -3 -57 -12 -93 -21 -36 -9 -80 -18 -99 -21 -18 -2 -36 -6
-40 -9 -4 -2 -21 -6 -37 -9 -16 -3 -94 -19 -174 -35 -80 -16 -148 -27 -152
-25 -5 3 -8 2 -8 -3 0 -4 -10 -8 -22 -9 -30 -1 -96 -11 -150 -23 -24 -5 -50
-9 -58 -10 -16 0 -40 -4 -112 -16 -24 -4 -54 -9 -68 -11 -92 -10 -136 -17
-145 -21 -11 -6 75 78 309 300 82 78 193 184 245 234 53 51 106 96 119 99 31
8 69 -3 93 -27 28 -28 75 -41 102 -28 12 6 76 73 142 150 66 76 123 139 127
139 5 0 8 5 8 10 0 6 8 18 18 28 24 25 63 70 167 192 50 58 104 121 122 140
17 19 41 46 53 60 22 26 111 128 145 166 11 12 34 40 51 61 18 21 42 50 55 64
52 57 135 154 155 181 11 15 24 25 27 21 4 -3 7 -1 7 5 0 6 6 17 13 24 47 49
159 186 170 207 19 38 12 96 -15 130 -13 16 -57 55 -98 87 -41 32 -77 61 -80
64 -3 4 -27 21 -53 39 -56 38 -118 47 -163 23z m-2051 -2563 c30 -13 57 -59
57 -94 0 -32 -29 -85 -47 -85 -7 0 -13 -4 -13 -9 0 -19 -85 -5 -112 18 -54 47
-41 149 22 174 25 9 68 8 93 -4z"/>
<path d="M10200 6729 c-19 -3 -51 -9 -70 -13 -56 -11 -159 -63 -215 -109 -96
-78 -164 -187 -191 -306 -8 -36 -13 -234 -6 -246 4 -5 8 -17 9 -25 8 -50 14
-71 36 -120 14 -34 14 -32 22 -57 4 -13 11 -23 16 -23 5 0 9 -7 9 -15 0 -8 5
-15 10 -15 6 0 10 -6 10 -13 0 -24 127 -134 191 -165 94 -46 166 -62 262 -57
115 5 141 11 235 56 194 93 309 275 310 489 0 193 -65 356 -193 483 -57 56
-173 115 -265 134 -35 7 -138 9 -170 2z m211 -130 c77 -22 169 -89 220 -159
23 -31 34 -53 70 -135 28 -67 31 -219 5 -310 -22 -74 -86 -167 -148 -213 -49
-38 -130 -79 -169 -87 -34 -7 -94 -17 -104 -17 -37 -2 -136 17 -179 33 -198
78 -321 314 -282 544 18 107 121 248 223 303 100 54 257 72 364 41z"/>
<path d="M346 6704 c-135 -92 -229 -303 -227 -513 1 -79 6 -107 32 -187 84
-258 371 -418 637 -358 35 8 71 18 80 23 9 4 39 19 66 32 57 27 163 126 198
184 107 175 131 428 57 602 -10 22 -26 44 -36 47 -21 6 -182 44 -215 50 -13 2
-52 11 -88 20 -86 21 -87 20 -94 -11 -14 -62 -16 -83 -9 -83 5 0 51 -12 103
-26 52 -14 106 -27 119 -29 13 -2 35 -8 50 -13 14 -6 38 -13 52 -16 21 -5 28
-15 41 -62 25 -88 16 -242 -19 -324 -3 -8 -7 -21 -9 -28 -1 -8 -10 -22 -18
-31 -9 -10 -16 -22 -16 -28 0 -19 -113 -130 -160 -156 -83 -48 -179 -62 -293
-43 -21 3 -48 11 -60 18 -12 6 -23 10 -25 9 -11 -9 -107 54 -155 102 -95 95
-139 210 -133 352 6 152 59 271 161 362 l52 48 -26 42 -27 43 -38 -26z"/>
<path d="M9804 5191 c-3 -14 -10 -38 -14 -53 -5 -15 -6 -29 -2 -32 8 -5 174
-50 275 -75 21 -5 41 -11 43 -14 3 -3 -2 -33 -12 -68 -9 -35 -18 -71 -19 -79
-2 -8 -4 -15 -5 -15 -1 0 -4 -11 -7 -25 -7 -39 -11 -55 -13 -55 -1 0 -9 -31
-18 -68 l-17 -69 -82 -33 c-46 -18 -83 -30 -83 -27 0 4 -4 3 -8 -3 -4 -5 -29
-18 -57 -29 -27 -10 -77 -29 -110 -41 -60 -23 -60 -23 -72 -76 -7 -30 -11 -57
-10 -61 2 -5 90 25 182 62 11 4 54 20 95 34 41 15 88 34 104 42 16 8 31 13 33
10 2 -2 11 -31 18 -65 34 -142 122 -233 265 -271 99 -27 235 -4 292 49 9 9 23
21 30 27 59 50 138 187 144 249 0 6 7 30 14 55 7 25 15 51 16 59 2 8 12 50 24
94 12 43 23 87 26 96 20 84 25 114 18 121 -9 7 -54 20 -159 46 -33 8 -67 17
-75 21 -8 3 -19 7 -25 8 -5 2 -37 10 -70 20 -33 9 -67 18 -75 19 -8 2 -22 6
-30 9 -15 6 -160 45 -190 52 -8 2 -81 22 -162 45 -82 22 -156 43 -165 45 -10
3 -35 9 -56 14 -35 8 -37 8 -43 -18z m686 -282 c19 -5 42 -11 50 -13 8 -2 41
-12 74 -21 62 -18 83 -23 104 -24 13 -1 12 -55 -1 -91 -3 -8 -9 -28 -13 -45
-60 -245 -80 -292 -148 -359 -99 -98 -273 -88 -375 22 -46 51 -62 98 -65 192
-2 35 56 293 89 401 5 14 21 11 128 -19 67 -18 138 -38 157 -43z"/>
<path d="M467 4633 c-3 -5 -8 -28 -13 -53 -4 -25 -8 -47 -9 -50 0 -3 -4 -26
-9 -52 -4 -27 -10 -48 -14 -48 -4 0 -21 12 -37 28 -16 15 -51 46 -78 69 l-49
42 -26 -31 c-15 -18 -21 -32 -15 -36 6 -4 39 -32 73 -62 34 -30 68 -58 74 -62
18 -12 -3 -23 -94 -54 -47 -16 -88 -33 -92 -38 -3 -5 -1 -20 5 -33 13 -29 17
-28 136 16 l83 32 -7 -38 c-4 -21 -9 -51 -12 -68 -2 -16 -8 -48 -13 -70 -10
-46 -7 -52 36 -58 32 -5 32 -4 39 47 4 28 8 58 10 66 1 8 6 33 9 54 4 22 9 42
11 45 3 2 39 -29 80 -70 41 -41 79 -75 83 -77 4 -1 18 11 30 27 l22 30 -46 38
c-25 21 -63 54 -85 74 -43 39 -42 39 19 54 8 2 21 7 30 11 9 4 22 8 28 9 6 2
29 11 52 21 41 19 41 19 27 50 -11 26 -17 31 -39 27 -14 -3 -26 -9 -26 -14 0
-5 -7 -9 -15 -9 -9 0 -43 -11 -76 -25 l-60 -24 6 37 c4 20 8 48 10 62 2 14 8
46 13 73 6 28 6 50 1 53 -17 10 -58 14 -62 7z"/>
<path d="M9396 4079 c-25 -34 -54 -73 -65 -88 -162 -213 -349 -475 -345 -484
2 -7 20 -22 39 -34 l34 -22 64 88 c36 48 72 95 81 104 9 8 16 18 16 20 0 8
231 312 239 315 4 1 24 -10 44 -25 105 -80 225 -174 251 -196 l28 -25 -53 -68
c-30 -38 -57 -70 -61 -72 -5 -2 -8 -8 -8 -13 0 -5 -33 -51 -72 -103 -40 -51
-84 -108 -98 -126 -14 -18 -32 -42 -41 -54 -16 -19 -15 -22 19 -48 19 -15 38
-28 42 -28 4 0 47 54 96 121 49 67 95 127 102 134 6 8 12 18 12 23 0 6 4 12 8
14 4 2 34 38 65 81 31 42 59 77 62 77 8 0 228 -171 241 -186 6 -8 16 -14 21
-14 5 0 18 -9 28 -20 17 -18 16 -21 -36 -92 -29 -40 -58 -78 -63 -85 -6 -6
-31 -39 -56 -74 -25 -35 -82 -112 -127 -173 l-82 -109 41 -30 41 -29 19 23
c10 13 63 85 118 159 55 74 106 142 113 150 7 9 16 24 20 33 3 9 11 17 17 17
5 0 10 4 10 9 0 6 34 55 75 109 41 55 75 103 74 108 0 5 -36 36 -80 69 -44 33
-85 65 -92 70 -7 6 -52 42 -102 80 -49 38 -92 72 -95 75 -3 3 -32 25 -65 50
-33 25 -66 50 -75 57 -8 7 -53 42 -100 79 -47 36 -95 74 -108 85 -12 10 -26
19 -31 19 -5 0 -11 3 -13 8 -4 10 -93 82 -101 82 -4 0 -27 -27 -51 -61z"/>
<path d="M1620 3825 l-34 -35 41 -43 c22 -23 87 -91 144 -151 57 -60 135 -141
173 -180 114 -118 119 -93 -45 -256 l-142 -142 -111 117 c-61 65 -150 158
-197 208 l-87 91 -37 -37 -38 -38 30 -32 c17 -18 62 -64 99 -104 38 -39 101
-106 139 -149 39 -42 81 -87 95 -100 l24 -23 -24 -27 c-14 -15 -74 -78 -134
-140 l-109 -113 -41 44 c-23 23 -91 96 -153 162 -208 221 -239 253 -246 253
-4 0 -22 -15 -40 -34 l-33 -33 91 -95 c49 -53 146 -155 215 -228 155 -165 209
-220 216 -220 3 0 178 173 390 385 243 244 382 390 378 398 -4 7 -31 37 -60
67 -29 30 -79 82 -111 116 -280 294 -338 357 -341 365 -6 16 -17 10 -52 -26z"/>
<path d="M2405 3051 c6 -74 13 -144 30 -328 l6 -72 -63 1 c-138 2 -211 -34
-294 -145 -76 -102 -100 -233 -63 -344 15 -46 81 -143 123 -180 37 -32 39 -34
166 -109 52 -31 106 -64 120 -72 14 -9 28 -16 31 -15 4 1 15 -7 24 -17 10 -11
23 -20 29 -20 6 0 28 -11 48 -25 20 -14 41 -25 46 -25 4 0 16 15 25 33 9 17
28 52 43 77 14 25 51 90 81 145 31 55 65 112 75 128 11 15 17 27 13 27 -3 0 6
17 20 37 14 21 25 43 25 49 0 7 4 14 8 16 4 2 25 35 47 73 21 39 47 86 58 105
11 19 48 85 83 146 35 62 64 116 64 122 0 5 -22 21 -49 35 l-49 26 -25 -47
c-14 -26 -38 -72 -54 -102 -15 -30 -31 -57 -34 -60 -4 -3 -16 -25 -29 -50 -12
-25 -23 -46 -25 -48 -2 -2 -160 89 -181 105 -13 10 -68 41 -116 65 -32 15 -38
24 -39 51 0 17 -2 39 -4 48 -1 10 -6 52 -10 95 -8 85 -10 106 -19 199 -7 63
-18 78 -86 118 l-30 18 5 -60z m9 -514 c3 3 12 1 19 -5 8 -7 16 -9 19 -6 8 7
118 -46 118 -57 0 -5 5 -9 10 -9 8 0 236 -133 248 -144 3 -3 -182 -334 -230
-411 -10 -16 -21 -38 -24 -47 -4 -10 -10 -18 -14 -18 -4 0 -76 41 -161 92
-227 135 -282 202 -275 336 4 83 33 148 88 198 55 49 134 84 170 74 14 -5 29
-6 32 -3z"/>
<path d="M8826 2448 c-10 -24 -32 -72 -49 -108 l-30 -65 -13 31 c-7 17 -20 36
-28 43 -9 8 -16 17 -16 22 0 5 -13 28 -28 52 -27 44 -29 44 -55 31 -15 -8 -27
-20 -27 -27 0 -7 16 -36 35 -66 19 -29 35 -57 35 -62 0 -5 3 -9 8 -9 4 0 12
-11 18 -24 10 -21 9 -25 -7 -29 -11 -3 -19 -2 -19 3 0 4 -16 4 -35 0 -21 -5
-35 -4 -35 2 0 5 -5 6 -11 2 -6 -3 -30 -6 -54 -6 -42 1 -43 0 -47 -33 -4 -39
3 -44 58 -40 48 4 134 7 152 6 14 -1 4 -27 -20 -53 -7 -7 -28 -41 -45 -74
l-32 -61 29 -21 c34 -25 28 -32 90 96 l46 92 59 -95 c32 -52 61 -95 64 -95 9
1 51 37 51 44 0 3 -25 44 -55 91 -30 46 -50 87 -46 90 5 3 47 5 93 4 127 -1
118 -4 118 39 l0 38 -62 -2 c-35 -1 -63 -3 -63 -4 0 -1 -21 -3 -46 -4 -54 -2
-55 -12 10 113 l43 84 -24 18 c-34 27 -42 24 -62 -23z"/>
<path d="M7175 2450 c-66 -19 -129 -45 -153 -63 -28 -21 -152 -147 -152 -155
0 -4 -4 -13 -9 -21 -7 -11 -19 -8 -62 15 -30 16 -56 31 -59 34 -10 10 -71 42
-74 38 -11 -12 -36 -70 -36 -82 0 -9 11 -18 25 -22 14 -3 25 -9 25 -13 0 -3
22 -17 48 -30 85 -41 94 -51 82 -91 -11 -35 -23 -128 -23 -165 1 -80 -1 -76
49 -73 l46 3 2 100 c3 122 7 133 46 105 15 -11 33 -20 39 -20 6 0 11 -4 11
-10 0 -5 5 -10 11 -10 13 0 258 -140 265 -151 2 -4 -21 -40 -51 -81 -86 -114
-107 -189 -81 -293 2 -11 5 -22 5 -25 2 -11 58 -69 82 -84 50 -32 165 -39 207
-13 6 5 12 6 12 2 0 -14 102 48 135 82 54 56 78 109 79 173 0 89 -46 161 -149
230 -27 18 -51 34 -53 36 -2 1 20 31 48 66 29 34 56 74 62 88 5 14 15 32 22
40 42 48 49 171 15 250 -59 136 -228 193 -414 140z m207 -102 c57 -25 88 -64
105 -133 7 -30 3 -92 -7 -121 -20 -52 -116 -184 -134 -184 -2 0 -65 36 -141
80 -76 44 -141 80 -145 80 -4 0 -13 7 -20 15 -6 8 -15 13 -18 12 -4 -1 -26 10
-49 24 l-42 25 16 32 c19 39 108 129 137 138 11 4 23 10 26 13 3 4 28 15 55
24 65 21 163 19 217 -5z m29 -590 c27 -17 49 -35 49 -40 0 -4 6 -8 13 -8 17 0
57 -65 62 -100 2 -16 6 -34 10 -40 3 -5 2 -10 -4 -10 -6 0 -8 -6 -5 -14 6 -17
-49 -82 -86 -101 -40 -21 -109 -35 -116 -24 -3 5 -9 7 -14 4 -16 -10 -61 18
-81 52 -12 19 -22 50 -24 71 -2 34 18 100 34 112 3 3 14 17 24 32 20 32 77 98
84 98 3 0 27 -14 54 -32z"/>
<path d="M3748 2415 c-2 -2 -24 -5 -49 -8 -125 -15 -243 -90 -352 -226 -22
-28 -89 -163 -83 -169 3 -2 0 -16 -6 -31 -16 -42 -19 -62 -19 -136 -1 -112 21
-200 72 -291 29 -52 118 -148 160 -174 54 -32 126 -67 154 -75 17 -4 37 -10
45 -12 8 -3 23 -5 33 -6 9 -1 17 -4 17 -8 0 -4 53 -6 118 -5 99 2 127 7 185
29 116 45 199 113 268 219 22 34 42 74 46 88 3 14 9 30 14 35 4 6 11 26 14 45
3 19 9 49 13 65 9 36 8 144 -3 200 -42 226 -233 404 -485 452 -29 5 -138 11
-142 8z m199 -125 c143 -46 253 -153 300 -292 20 -58 25 -246 9 -283 -5 -11
-10 -23 -11 -27 -2 -5 -4 -10 -5 -13 -1 -3 -3 -8 -4 -12 -5 -30 -73 -128 -116
-166 -50 -45 -135 -91 -189 -103 -92 -19 -223 -12 -280 15 -9 5 -33 16 -54 26
-60 29 -151 118 -184 182 -17 32 -38 86 -46 120 -15 68 -15 182 2 226 6 15 8
27 6 27 -14 0 69 141 107 181 118 126 299 172 465 119z"/>
<path d="M4789 2188 c-3 -8 -12 -381 -23 -990 l-3 -126 26 -4 c58 -7 78 2 96
43 10 21 22 39 27 39 4 0 8 5 8 11 0 6 22 48 49 93 74 123 89 148 112 191 12
22 24 42 28 45 3 3 13 19 22 35 30 56 168 290 179 302 5 7 10 16 10 21 0 5 6
14 13 20 14 12 15 11 77 -103 18 -33 57 -103 86 -156 30 -54 54 -100 54 -105
0 -4 6 -15 14 -23 7 -9 28 -45 47 -81 18 -36 38 -68 44 -72 5 -4 6 -8 1 -8 -5
0 -4 -6 2 -12 10 -14 21 -32 96 -170 l48 -88 43 0 c24 0 46 4 49 8 4 7 12 382
21 940 l2 172 -53 0 c-30 0 -55 -3 -55 -7 -2 -12 -9 -334 -13 -611 -2 -139 -6
-255 -8 -257 -2 -2 -15 17 -28 43 -13 26 -46 84 -71 130 -26 45 -45 82 -42 82
4 0 0 8 -8 18 -8 9 -20 28 -27 41 -47 83 -95 171 -110 201 -9 19 -19 37 -22
40 -5 5 -18 29 -72 133 -30 56 -53 70 -84 49 -13 -9 -164 -260 -164 -273 0 -5
-4 -9 -10 -9 -5 0 -10 -5 -10 -10 0 -6 -11 -29 -26 -51 -14 -22 -33 -55 -43
-72 -51 -91 -126 -212 -133 -215 -5 -2 -8 -9 -8 -16 0 -7 -11 -27 -25 -46
l-25 -34 -1 30 c-1 16 0 34 1 39 2 9 10 416 13 695 l2 115 -52 3 c-29 2 -54 2
-54 0z"/>
</g>
</svg>
